<svg id="Слой_1" data-name="Слой 1" xmlns="http://www.w3.org/2000/svg" xmlns:xlink="http://www.w3.org/1999/xlink" viewBox="0 0 56.08 84.67"><defs><style>.cls-1{fill:none;}.cls-2{clip-path:url(#clip-path);}.cls-3{fill:#f04132;}</style><clipPath id="clip-path"><rect class="cls-1" width="56.08" height="84.67"/></clipPath></defs><title>note4</title><g class="cls-2"><path class="cls-3" d="M47.78,69.52C44.07,56.59,40.49,44.23,37,31.85c-.8-2.81-.53-6.72-2.27-8.23-1.54-1.35-5.18-.09-7.89,0a16.7,16.7,0,0,0-2.65.18c-2.69.53-5.37,1.13-8.55,1.81.86,9.63,2,19.09,2.47,28.6.44,8.84.26,17.73.1,26.59a3.93,3.93,0,0,1-2.51,2.84,51.36,51.36,0,0,1-9.28,0C2.49,83.44-.15,80.88,0,77.88s2.85-5.27,6.78-5.4a14.37,14.37,0,0,1,2.27.09c4.16.52,5.4-.85,5-5.17Q12.85,51.71,11.77,36c-.49-7.07-.87-14.16-1.31-21.24,0-.52,0-1.23-.26-1.53-2.91-3-2.83-6.47-1.12-10C9.72,2,11.33-.17,11.81,0c1.56.62,3.85,2,4,3.29.41,3.77,2.32,3.68,5,3.35C26.4,6,32,5.37,37.66,5.1c.83,0,2.41,1.81,2.52,2.9,1,9.69.83,19.6,2.78,29.06,1.87,9.09,5.85,17.72,8.89,26.56,1.44,4.19,3.34,8.29,4.14,12.61.64,3.47-2.1,5.71-5,7a18.67,18.67,0,0,1-5.14,1.24c-5.08.72-6.51-.6-7.54-6.71-.52-3.1,1.92-6,5.62-6.94a38.22,38.22,0,0,0,3.84-1.32"/></g></svg>