<svg id="Слой_1" data-name="Слой 1" xmlns="http://www.w3.org/2000/svg" xmlns:xlink="http://www.w3.org/1999/xlink" viewBox="0 0 23.08 75.76"><defs><style>.cls-1{fill:none;}.cls-2{clip-path:url(#clip-path);}.cls-3{fill:#f04132;}</style><clipPath id="clip-path"><rect class="cls-1" width="23.08" height="75.76"/></clipPath></defs><title>Монтажная область 1</title><g class="cls-2"><path class="cls-3" d="M15.61,9.39c-.65,6.82-1.5,12.79-1.71,18.78-.43,12.37-.54,24.76-.72,37.14a17.64,17.64,0,0,0,.54,4.41c.78,3.12-.78,4.94-2.75,5.51a19.48,19.48,0,0,1-7.42.33C.84,75.25-.08,72.7,0,69.81.14,65.3,1.08,64,4,63.6a15.28,15.28,0,0,1,2-.15c4.2,0,4.34-.18,4.34-5.06,0-10.36-.4-20.75.19-31.06C11,19,12.67,10.84,14,2.65c.16-1,1.43-1.77,2.18-2.65a12.61,12.61,0,0,0,.93,3C18.36,5,19.84,6.91,21.21,8.87c.65.92,1.25,1.9,1.87,2.85-1.12.18-2.32.73-3.35.45s-2.14-1.39-4.12-2.78"/></g></svg>