<svg data-name="Слой 1" xmlns="http://www.w3.org/2000/svg" viewBox="0 0 70.11 105.85"><defs><clipPath id="a"><path fill="none" d="M0 0h70.11v105.85H0z"/></clipPath></defs><g clip-path="url(#a)"><path d="M59.74 86.91c-4.65-16.17-9.12-31.62-13.51-47.09-1-3.52-.67-8.4-2.84-10.3-1.92-1.68-6.47-.1-9.86.05a22.72 22.72 0 0 0-3.31.23c-3.37.66-6.72 1.42-10.7 2.26 1.08 12 2.5 23.88 3.09 35.76.55 11.06.33 22.16.13 33.25 0 1.25-1.94 3.4-3.14 3.54a63.29 63.29 0 0 1-11.6 0c-4.89-.35-8.19-3.55-8-7.29.21-3.91 3.57-6.6 8.48-6.76a19.27 19.27 0 0 1 2.84.11c5.19.65 6.74-1 6.31-6.46Q16.06 64.64 14.72 45c-.62-8.85-1.1-17.7-1.65-26.56 0-.65 0-1.53-.31-1.91-3.64-3.8-3.55-8.09-1.4-12.48.8-1.63 2.81-4.28 3.4-4 2 .77 4.82 2.49 5 4.11.52 4.72 2.9 4.6 6.25 4.2 7-.85 14-1.6 21.08-1.95 1 0 3 2.26 3.16 3.63 1.23 12.12 1 24.51 3.47 36.33C56.05 57.7 61 68.48 64.82 79.53 66.62 84.77 69 89.9 70 95.3c.8 4.33-2.63 7.14-6.24 8.78a24.08 24.08 0 0 1-6.43 1.55c-6.35.9-8.14-.75-9.42-8.39-.66-3.88 2.4-7.56 7-8.68a47 47 0 0 0 4.8-1.65" fill="#24186a"/></g></svg>