<svg data-name="Слой 1" xmlns="http://www.w3.org/2000/svg" viewBox="0 0 23.89 66"><defs><clipPath id="a"><path fill="none" d="M0 0h23.89v66H0z"/></clipPath></defs><g clip-path="url(#a)"><path d="M16.16 8.18c-.67 5.94-1.55 11.14-1.77 16.37-.45 10.77-.56 21.56-.75 32.35a13 13 0 0 0 .57 3.85c.81 2.71-.82 4.3-2.86 4.79a23.75 23.75 0 0 1-7.67.29c-2.81-.27-3.76-2.49-3.67-5 .14-3.93 1.11-5.08 4.13-5.41a18.5 18.5 0 0 1 2.1-.13c4.35 0 4.5-.16 4.49-4.41 0-9-.41-18.08.2-27.06.5-7.22 2.18-14.36 3.52-21.5.17-.89 1.48-1.56 2.26-2.32a9.45 9.45 0 0 0 1 2.61C19 4.39 20.54 6 22 7.73c.67.8 1.29 1.65 1.93 2.48-1.16.16-2.4.64-3.46.39s-2.22-1.21-4.27-2.42" fill="#24186a"/></g></svg>