<svg data-name="Слой 1" xmlns="http://www.w3.org/2000/svg" viewBox="0 0 68.05 92.06"><defs><clipPath id="a"><path fill="none" d="M0 0h68.05v92.06H0z"/></clipPath></defs><g clip-path="url(#a)"><path d="M47.07 78.33c2.49-13.22 4.85-25.87 7.27-38.51.55-2.86 2.55-6.23 1.68-8.37-.77-1.89-4.59-2.4-7.07-3.51a17.75 17.75 0 0 0-2.44-1c-2.65-.74-5.31-1.41-8.46-2.23-3.56 9-6.8 18-10.65 26.66-3.58 8.1-7.73 15.95-11.86 23.8A3.93 3.93 0 0 1 12 76.56a51.4 51.4 0 0 1-8.3-4.14c-3.37-2-4.58-5.48-3.09-8.08s4.92-3.44 8.49-1.78a13.67 13.67 0 0 1 2 1.1c3.48 2.33 5.2 1.67 6.84-2.36q5.93-14.58 12-29.09c2.74-6.54 5.58-13 8.37-19.57.2-.48.58-1.08.46-1.48-1.23-4 .38-7.06 3.49-9.42 1.15-.87 3.55-2 3.88-1.67 1.13 1.26 2.56 3.51 2.1 4.73-1.33 3.56.41 4.33 3 5.25C56.52 12 61.82 14 67 16.24c.76.33 1.35 2.69 1 3.72-3.47 9.1-8.06 17.89-10.57 27.21-2.42 9-2.74 18.46-4 27.72-.59 4.39-.74 8.91-2 13.13-1 3.38-4.44 4.16-7.61 4a19.28 19.28 0 0 1-5.15-1.2c-4.86-1.64-5.54-3.47-3.72-9.39.93-3 4.44-4.53 8.14-3.67a37.12 37.12 0 0 0 4 .54" fill="#fdb315"/></g></svg>