<svg data-name="Слой 1" xmlns="http://www.w3.org/2000/svg" viewBox="0 0 56.08 84.67"><defs><clipPath id="a"><path fill="none" d="M0 0h56.08v84.67H0z"/></clipPath></defs><g clip-path="url(#a)"><path d="M47.78 69.52C44.07 56.59 40.49 44.23 37 31.85c-.8-2.81-.53-6.72-2.27-8.23-1.54-1.35-5.18-.09-7.89 0a18 18 0 0 0-2.65.19c-2.69.53-5.37 1.13-8.55 1.81.86 9.63 2 19.09 2.47 28.6.44 8.84.26 17.73.1 26.59a3.93 3.93 0 0 1-2.51 2.84 50.46 50.46 0 0 1-9.28 0C2.49 83.44-.15 80.88 0 77.88s2.85-5.27 6.78-5.4a13.27 13.27 0 0 1 2.27.09c4.16.52 5.4-.85 5-5.17q-1.2-15.69-2.28-31.4c-.49-7.07-.87-14.16-1.32-21.24 0-.52 0-1.23-.25-1.53-2.91-3-2.83-6.47-1.12-10C9.72 2 11.33-.17 11.81 0c1.56.62 3.85 2 4 3.29.41 3.77 2.32 3.68 5 3.35C26.4 6 32 5.37 37.66 5.1c.83 0 2.41 1.8 2.52 2.9 1 9.69.83 19.6 2.78 29.06 1.87 9.09 5.85 17.72 8.89 26.56 1.44 4.19 3.34 8.29 4.14 12.61.64 3.47-2.1 5.71-5 7a18.67 18.67 0 0 1-5.14 1.24c-5.08.72-6.51-.6-7.54-6.71-.52-3.1 1.92-6 5.62-6.94a38.22 38.22 0 0 0 3.84-1.32" fill="#24186a"/></g></svg>