<svg id="Слой_1" data-name="Слой 1" xmlns="http://www.w3.org/2000/svg" viewBox="0 0 1887.5 140.68"><defs><style>.cls-2{fill:#f04132}</style><clipPath id="clip-path"><path fill="none" d="M0 0h1887.5v140.68H0z"/></clipPath></defs><path class="cls-2" d="M19.85 27.09l-15.8 76.3h-.08v-76.3H0v94.95h4.79l15.8-76.71h.09v76.71h3.96V27.09h-4.79zm27.2 74.03h.09l8.93-74.03h5.99v94.95h-3.97l.05-78.59h-.13l-9.8 78.59h-2.44l-9.76-78.59h-.12l.04 78.59h-3.89V27.09H38l9.05 74.03z"/><g clip-path="url(#clip-path)"><path class="cls-2" d="M73.39 27.09v41.57h5.14A135 135 0 0 1 80 51a79 79 0 0 1 3.31-13.88A29.94 29.94 0 0 1 88.09 28q2.68-3.29 5.79-3.29c2.21 0 4.26 1.24 6.15 3.7a33.19 33.19 0 0 1 4.91 10.25 91.83 91.83 0 0 1 3.23 15.69 161 161 0 0 1 1.15 20.12 162.44 162.44 0 0 1-1.15 20.18 93.48 93.48 0 0 1-3.23 15.83 33.33 33.33 0 0 1-4.94 10.28q-2.84 3.69-6.15 3.69-3.1 0-5.81-3.28a29.5 29.5 0 0 1-4.71-9.17A82.82 82.82 0 0 1 80 98a136.61 136.61 0 0 1-1.51-17.77h-5.1V122h-4V27.09zm9.35 47.34a134.17 134.17 0 0 0 .78 14.89 79.65 79.65 0 0 0 2.24 12.2 27.88 27.88 0 0 0 3.51 8.25q2.07 3 4.63 3t4.63-3a28.13 28.13 0 0 0 3.52-8.25 79.73 79.73 0 0 0 2.23-12.2 134.08 134.08 0 0 0 .79-14.89 131.2 131.2 0 0 0-.79-14.69 79.86 79.86 0 0 0-2.23-12.13 29 29 0 0 0-3.52-8.32q-2.07-3.07-4.63-3.08t-4.63 3.08a28.74 28.74 0 0 0-3.51 8.32 79.78 79.78 0 0 0-2.24 12.13 131.28 131.28 0 0 0-.78 14.69m42.54 47.61h-3.97V38.49h-9.42v-11.4h22.82v11.4h-9.43v83.55zm38.5-14.75a52.18 52.18 0 0 1-1.9 6.7 32.76 32.76 0 0 1-2.5 5.43 13.58 13.58 0 0 1-3.06 3.69 5.72 5.72 0 0 1-3.62 1.34c-2.23 0-4.29-1.23-6.16-3.69a33.13 33.13 0 0 1-4.86-10.32 95.63 95.63 0 0 1-3.21-15.83 161.2 161.2 0 0 1-1.15-20 156.8 156.8 0 0 1 1.18-20.11 93.31 93.31 0 0 1 3.24-15.76 33.57 33.57 0 0 1 4.88-10.32c1.88-2.46 3.91-3.7 6.12-3.7a5.68 5.68 0 0 1 3.12 1 11.43 11.43 0 0 1 2.94 2.89 22.54 22.54 0 0 1 2.54 4.62 36.76 36.76 0 0 1 1.94 6.24l-3.06 8.31a27.85 27.85 0 0 0-2.91-8.05q-2-3.48-4.49-3.48t-4.67 3.08a28.74 28.74 0 0 0-3.51 8.32 79.65 79.65 0 0 0-2.24 12.2 132.9 132.9 0 0 0-.78 14.75 132.23 132.23 0 0 0 .78 14.82 79.7 79.7 0 0 0 2.24 12.14 27.88 27.88 0 0 0 3.51 8.25q2.07 3 4.63 3t4.53-3.15q2.08-3.15 3.45-9.72zM174 75.5c-2-1.07-3.57-3.44-4.75-7.11s-1.8-8.67-1.82-15q0-13 3.05-19.65t8.38-6.64H188v95h-4V80.33h-3.14a5.15 5.15 0 0 0-4 2.21 19.73 19.73 0 0 0-3.12 7.18 86.07 86.07 0 0 0-2.17 12.94q-.86 8-1.18 19.38H166q.17-8.45.83-15.9t1.72-13.41A82.62 82.62 0 0 1 171 82.47a27.75 27.75 0 0 1 3-6.7zm10-36.88h-4.8a6.06 6.06 0 0 0-5.62 3.56q-1.91 3.56-1.9 11.46 0 7.11 1.88 11.13c1.25 2.68 3.13 4 5.64 4h4.8zm43.71-11.53v94.95h-3.97V38.62h-14.06v83.42h-3.97V27.09h22zm7.35 0H244a6.48 6.48 0 0 1 4.18 1.54 12.09 12.09 0 0 1 3.27 4.76 34.62 34.62 0 0 1 2.11 8.18 81.91 81.91 0 0 1 .74 11.81 77.08 77.08 0 0 1-.79 11.86 36 36 0 0 1-2.17 8.32 12.74 12.74 0 0 1-3.34 4.89 6.35 6.35 0 0 1-4.17 1.61H239v42h-4zm4 42.38h4.53c2.07 0 3.7-1.3 4.87-3.91s1.77-6.6 1.77-12q0-8.36-1.79-12c-1.19-2.42-2.79-3.64-4.81-3.64H239zM289 74.43a162.44 162.44 0 0 1-1.15 20.18 92.5 92.5 0 0 1-3.23 15.83 33.33 33.33 0 0 1-4.9 10.32c-1.89 2.46-3.93 3.69-6.14 3.69s-4.25-1.23-6.14-3.69a33.33 33.33 0 0 1-4.9-10.32 93.48 93.48 0 0 1-3.23-15.83 162.44 162.44 0 0 1-1.15-20.18 161 161 0 0 1 1.15-20.12 91.83 91.83 0 0 1 3.23-15.69 33.2 33.2 0 0 1 4.9-10.25c1.89-2.46 3.94-3.7 6.14-3.7s4.25 1.24 6.14 3.7a33.2 33.2 0 0 1 4.9 10.25 90.88 90.88 0 0 1 3.23 15.69A161 161 0 0 1 289 74.43m-4.25 0a131.2 131.2 0 0 0-.79-14.69 79.86 79.86 0 0 0-2.23-12.13 29 29 0 0 0-3.52-8.32q-2.07-3.07-4.63-3.08t-4.63 3.08a29 29 0 0 0-3.52 8.32 81.11 81.11 0 0 0-2.23 12.13 131.28 131.28 0 0 0-.78 14.69 134.17 134.17 0 0 0 .78 14.89 81 81 0 0 0 2.23 12.2 28.13 28.13 0 0 0 3.52 8.25q2.07 3 4.63 3t4.63-3a28.13 28.13 0 0 0 3.52-8.25 79.73 79.73 0 0 0 2.23-12.2 134.08 134.08 0 0 0 .79-14.89m20.19 47.61h-3.97V38.49h-9.42v-11.4h22.82v11.4h-9.43v83.55zm17.62-18.65l15.79-76.3h4.8v94.95h-3.97V45.33h-.08l-15.8 76.71h-4.79V27.09h3.97v76.3h.08zm27.99-76.3H360a6.1 6.1 0 0 1 3.37 1.14 9.77 9.77 0 0 1 3.08 3.89 28.94 28.94 0 0 1 2.23 7.44 66.52 66.52 0 0 1 .87 11.8 54.65 54.65 0 0 1-1.38 13.15q-1.4 5.49-3.7 7.37v.27a5.7 5.7 0 0 1 2.58 2.35 18.28 18.28 0 0 1 2.05 4.76 45 45 0 0 1 1.36 7 75.66 75.66 0 0 1 .5 9 71.44 71.44 0 0 1-.81 11.4 36.63 36.63 0 0 1-2.27 8.38 13.93 13.93 0 0 1-3.5 5.16A6.6 6.6 0 0 1 360 122h-9.43zm4 40.63H360a3.4 3.4 0 0 0 2.06-.8 6.69 6.69 0 0 0 1.81-2.55 19.65 19.65 0 0 0 1.28-4.63 42.42 42.42 0 0 0 .49-7 41.42 41.42 0 0 0-.47-6.77 18.11 18.11 0 0 0-1.34-4.56 6.46 6.46 0 0 0-2-2.61 4.29 4.29 0 0 0-2.51-.81h-4.74zm0 43.46h5.15a4.88 4.88 0 0 0 2.72-.88 7.19 7.19 0 0 0 2.33-2.88 20 20 0 0 0 1.61-5.16 44 44 0 0 0 .59-7.85q0-8.44-1.83-12.47c-1.22-2.68-2.91-4-5-4h-5.52zm51.9-36.75a160.44 160.44 0 0 1-1.16 20.18 92.57 92.57 0 0 1-3.22 15.83 33.33 33.33 0 0 1-4.9 10.32c-1.89 2.46-3.93 3.69-6.14 3.69s-4.25-1.23-6.14-3.69a33.33 33.33 0 0 1-4.9-10.32 93.48 93.48 0 0 1-3.23-15.83 162.44 162.44 0 0 1-1.15-20.18 161 161 0 0 1 1.15-20.12A91.83 91.83 0 0 1 380 38.62a33.2 33.2 0 0 1 4.9-10.25c1.89-2.46 3.93-3.7 6.14-3.7s4.25 1.24 6.14 3.7a33.2 33.2 0 0 1 4.9 10.25 90.94 90.94 0 0 1 3.22 15.69 159 159 0 0 1 1.16 20.12m-4.25 0a131.2 131.2 0 0 0-.79-14.69 81.11 81.11 0 0 0-2.23-12.13 29 29 0 0 0-3.52-8.32q-2.07-3.07-4.63-3.08t-4.63 3.08a29 29 0 0 0-3.52 8.32 79.86 79.86 0 0 0-2.23 12.13 131.2 131.2 0 0 0-.79 14.69 134.08 134.08 0 0 0 .79 14.89 79.73 79.73 0 0 0 2.23 12.2 28.13 28.13 0 0 0 3.52 8.25q2.07 3 4.63 3t4.63-3a28.13 28.13 0 0 0 3.52-8.25 81 81 0 0 0 2.23-12.2 134.08 134.08 0 0 0 .79-14.89m32.07-47.34v94.95h-3.97V38.62h-14.06v83.42h-3.97V27.09h22zM471 74.43a162.34 162.34 0 0 1-1.16 20.18 92.5 92.5 0 0 1-3.23 15.83 33.33 33.33 0 0 1-4.9 10.32c-1.89 2.46-3.93 3.69-6.14 3.69s-4.25-1.23-6.14-3.69a33.33 33.33 0 0 1-4.9-10.32 92.57 92.57 0 0 1-3.22-15.83 160.44 160.44 0 0 1-1.16-20.18 159 159 0 0 1 1.16-20.12 90.94 90.94 0 0 1 3.22-15.69 33.2 33.2 0 0 1 4.9-10.25c1.89-2.46 3.94-3.7 6.14-3.7s4.25 1.24 6.14 3.7a33.2 33.2 0 0 1 4.9 10.25 90.88 90.88 0 0 1 3.23 15.69A160.88 160.88 0 0 1 471 74.43m-4.26 0a131.2 131.2 0 0 0-.79-14.69 79.86 79.86 0 0 0-2.23-12.13 29 29 0 0 0-3.52-8.32q-2.07-3.07-4.63-3.08t-4.63 3.08a28.74 28.74 0 0 0-3.51 8.32 79.78 79.78 0 0 0-2.24 12.13 131.28 131.28 0 0 0-.78 14.69 134.17 134.17 0 0 0 .78 14.89 79.65 79.65 0 0 0 2.24 12.2 27.88 27.88 0 0 0 3.51 8.25q2.07 3 4.63 3t4.63-3a28.13 28.13 0 0 0 3.52-8.25 79.73 79.73 0 0 0 2.23-12.2 134.08 134.08 0 0 0 .79-14.89M476.79 122V27.09h4V66a9.33 9.33 0 0 1 1.92.2c.62.14 1.23.29 1.84.47l10.55-39.58h4.39l-10.88 42.64q4.84 5.37 7.57 18.24T500 122h-4.42q-.63-11.81-1.76-20.39a80.71 80.71 0 0 0-2.91-14q-1.78-5.43-4.28-7.91a7.19 7.19 0 0 0-5.85-2.22V122zm29.68 0h-4.38l12.57-94.95h3.89L531 122h-4.51l-3-23.34h-14.08zm4.26-34.6h11.5l-5.71-45.87zm29.07-19.95h2.11a4.42 4.42 0 0 0 2.67-.93 7.65 7.65 0 0 0 2.19-2.88 19.42 19.42 0 0 0 1.46-5 41.26 41.26 0 0 0 .54-7.17q0-7.65-1.55-11.74c-1-2.72-2.39-4.09-4.07-4.09q-2 0-3.41 3.29a34.05 34.05 0 0 0-2.17 8.91L534.26 42q1.28-8.46 3.64-12.88t5.58-4.43a5.33 5.33 0 0 1 3.76 1.68 13.76 13.76 0 0 1 3 4.9 35.83 35.83 0 0 1 2 8 79.4 79.4 0 0 1 .7 11.13 53.88 53.88 0 0 1-.54 7.92 43.61 43.61 0 0 1-1.36 6.3 23.5 23.5 0 0 1-1.88 4.56 9 9 0 0 1-2.09 2.68v.27a6.24 6.24 0 0 1 2.49 1.87 13.8 13.8 0 0 1 2.36 4.15 36.28 36.28 0 0 1 1.77 7 64.5 64.5 0 0 1 .71 10.39 78.28 78.28 0 0 1-.85 12.07 43.64 43.64 0 0 1-2.34 9.12 16.94 16.94 0 0 1-3.49 5.77 6 6 0 0 1-4.28 2 5.24 5.24 0 0 1-3.7-1.54 13.15 13.15 0 0 1-2.87-4.36 37.05 37.05 0 0 1-2.13-6.7q-.9-3.9-1.51-8.59l3.51-5.36a51.07 51.07 0 0 0 2.5 11.4q1.59 4.15 4.45 4.15 3.18 0 4.92-5a40.2 40.2 0 0 0 1.73-13 46.21 46.21 0 0 0-.62-8.31 19.56 19.56 0 0 0-1.75-5.5 7.55 7.55 0 0 0-2.71-3.08 6.63 6.63 0 0 0-3.48-.94h-2zM561.43 122H557l12.57-94.95h3.89L586 122h-4.51l-3-23.34h-14.13zm4.26-34.6h11.49l-5.71-45.87zm24.1-60.31h3.97v39.83h14.85V27.09h3.97v94.95h-3.97V78.45h-14.85v43.59h-3.97V27.09zm34.24 76.3l15.79-76.3h4.8v94.95h-3.97V45.33h-.08l-15.8 76.71h-4.8V27.09h3.98v76.3h.08zM657.6 75.5c-2-1.07-3.57-3.44-4.75-7.11s-1.8-8.67-1.82-15q0-13 3.05-19.65t8.38-6.64h9.16v95h-4V80.33h-3.14a5.12 5.12 0 0 0-4 2.21 19.89 19.89 0 0 0-3.13 7.18 88.71 88.71 0 0 0-2.17 12.94q-.84 8-1.18 19.38h-4.38q.17-8.45.83-15.9t1.72-13.41a79 79 0 0 1 2.42-10.26 27 27 0 0 1 3-6.7zm10-36.88h-4.8a6.06 6.06 0 0 0-5.62 3.56q-1.9 3.56-1.9 11.46 0 7.11 1.88 11.13c1.25 2.68 3.13 4 5.64 4h4.8zM683.48 114a22.08 22.08 0 0 1-.78 6.17c-.53 1.79-1.19 2.68-2 2.68s-1.42-.87-2-2.61a20.67 20.67 0 0 1-.81-6.1 21.93 21.93 0 0 1 .79-6.24c.52-1.74 1.19-2.62 2-2.62s1.46.86 2 2.55a21.3 21.3 0 0 1 .78 6.17m37.41-86.91v94.95h-3.98V38.62h-14.05v83.42h-3.97V27.09h22zm11.32 83.55h15.18v11.4h-19.15V27.09h18.57v11.4h-14.6v28.83h13.69v11h-13.69v32.32zm20.68-83.55h8.89a6.47 6.47 0 0 1 4.17 1.54 12.09 12.09 0 0 1 3.27 4.76 34.62 34.62 0 0 1 2.11 8.18 81.91 81.91 0 0 1 .74 11.81 77.08 77.08 0 0 1-.79 11.86 36 36 0 0 1-2.17 8.32 12.63 12.63 0 0 1-3.32 4.89 6.34 6.34 0 0 1-4.16 1.61h-4.77v42h-4zm4 42.38h4.52c2.08 0 3.7-1.3 4.88-3.91S768 59 768 53.58q0-8.36-1.78-12C765 39.17 763.42 38 761.4 38h-4.56zm24.57 41.17h15.17v11.4h-19.14V27.09h18.56v11.4h-14.59v28.83h13.68v11h-13.68v32.32zM802.07 122v18.64h-3.68V110.5h4l9.72-83.41H816l9.6 83.41h4.05v30.18h-3.72V122zm4.38-11.54h14.93l-7.48-68.75zm59.13-83.37v94.95h-3.97V38.62h-14.06v83.42h-3.97V27.09h22zm7.36 0h8.89a6.48 6.48 0 0 1 4.17 1.54 12.19 12.19 0 0 1 3.27 4.76 34.65 34.65 0 0 1 2.1 8.18 80.36 80.36 0 0 1 .75 11.81 78.36 78.36 0 0 1-.79 11.86 35.92 35.92 0 0 1-2.18 8.32 12.62 12.62 0 0 1-3.31 4.89 6.37 6.37 0 0 1-4.17 1.61h-4.77v42h-4zm4 42.38h4.52q3.12 0 4.88-3.91t1.76-12q0-8.36-1.78-12c-1.22-2.39-2.82-3.56-4.84-3.56h-4.57zm24.66 33.92l15.79-76.3h4.8v94.95h-3.97V45.33h-.08l-15.8 76.71h-4.8V27.09h3.97v76.3h.09zm43-2.27h.08l8.93-74.03h6v94.95h-3.97l.04-78.59h-.12l-9.8 78.59h-2.44l-9.76-78.59h-.13l.05 78.59h-3.89V27.09h5.95l9.06 74.03zm26.34 9.52h15.17v11.4h-19.14V27.09h18.56v11.4h-14.59v28.83h13.69v11h-13.69v32.32zm20.67-83.55h3.97v39.83h14.84V27.09h3.97v94.95h-3.97V78.45h-14.84v43.59h-3.97V27.09zm34.15 83.55h15.18v11.4h-19.15V27.09h18.57v11.4h-14.6v28.83h13.69v11h-13.69v32.32zm20.68-83.55h3.97v39.83h14.84V27.09h3.97v94.95h-3.97V78.45h-14.84v43.59h-3.97V27.09zm34.23 76.3l15.8-76.3h4.8v94.95h-3.97V45.33h-.09l-15.79 76.71h-4.8V27.09h3.97v76.3h.08zm31.97 7.25h15.17v11.4h-19.14V27.09h18.56v11.4h-14.59v28.83h13.68v11h-13.68v32.32zm35.68-9.52h.08l8.94-74.03h5.99v94.95h-3.97l.04-78.59h-.12l-9.8 78.59h-2.44l-9.76-78.59h-.13l.05 78.59h-3.89V27.09h5.95l9.06 74.03zm62.02-26.69a162.44 162.44 0 0 1-1.15 20.18 93.48 93.48 0 0 1-3.23 15.83 33.33 33.33 0 0 1-4.9 10.32q-2.83 3.69-6.14 3.69c-2.21 0-4.25-1.23-6.14-3.69a33.33 33.33 0 0 1-4.9-10.32 93.48 93.48 0 0 1-3.23-15.83 162.44 162.44 0 0 1-1.15-20.18 161 161 0 0 1 1.15-20.12 91.83 91.83 0 0 1 3.23-15.69 33.2 33.2 0 0 1 4.9-10.25c1.89-2.46 3.93-3.7 6.14-3.7s4.25 1.24 6.14 3.7a33.2 33.2 0 0 1 4.9 10.25 91.83 91.83 0 0 1 3.23 15.69 161 161 0 0 1 1.15 20.12m-4.26 0a131.28 131.28 0 0 0-.78-14.69 79.78 79.78 0 0 0-2.24-12.13 28.74 28.74 0 0 0-3.51-8.32q-2.07-3.07-4.63-3.08t-4.63 3.08a29 29 0 0 0-3.52 8.32 79.86 79.86 0 0 0-2.23 12.13 131.28 131.28 0 0 0-.78 14.69 134.17 134.17 0 0 0 .78 14.89 79.73 79.73 0 0 0 2.23 12.2 28.13 28.13 0 0 0 3.52 8.25q2.07 3 4.63 3t4.63-3a27.88 27.88 0 0 0 3.51-8.25 79.65 79.65 0 0 0 2.24-12.2 134.17 134.17 0 0 0 .78-14.89m15.05-6.98h2.11a4.42 4.42 0 0 0 2.67-.93 7.65 7.65 0 0 0 2.19-2.88 19.8 19.8 0 0 0 1.47-5 41.26 41.26 0 0 0 .54-7.17q0-7.65-1.56-11.74c-1-2.72-2.39-4.09-4.07-4.09q-2 0-3.41 3.29a34.46 34.46 0 0 0-2.17 8.91l-3.31-5.84q1.29-8.46 3.64-12.88t5.58-4.43a5.35 5.35 0 0 1 3.77 1.68 13.9 13.9 0 0 1 3 4.9 35.83 35.83 0 0 1 2 8 77.91 77.91 0 0 1 .7 11.13 53.88 53.88 0 0 1-.54 7.92 42.31 42.31 0 0 1-1.36 6.3 23.5 23.5 0 0 1-1.88 4.56 8.8 8.8 0 0 1-2.09 2.68v.27a6.24 6.24 0 0 1 2.48 1.81 13.59 13.59 0 0 1 2.36 4.15 36.21 36.21 0 0 1 1.78 7 65.81 65.81 0 0 1 .7 10.39 77.05 77.05 0 0 1-.85 12.07 42.44 42.44 0 0 1-2.34 9.12 16.78 16.78 0 0 1-3.49 5.77 6 6 0 0 1-4.28 2 5.24 5.24 0 0 1-3.7-1.54 13.15 13.15 0 0 1-2.87-4.36 37.05 37.05 0 0 1-2.13-6.7q-.9-3.9-1.51-8.59l3.51-5.36a51.07 51.07 0 0 0 2.5 11.4q1.61 4.15 4.45 4.15 3.18 0 4.92-5a40.17 40.17 0 0 0 1.74-13 47.15 47.15 0 0 0-.62-8.31 19.55 19.55 0 0 0-1.76-5.5 7.55 7.55 0 0 0-2.71-3.08 6.62 6.62 0 0 0-3.47-.94h-2zm20.76-40.36h3.97v39.83h14.84V27.09h3.97v94.95h-3.97V78.45h-14.84v43.59h-3.97V27.09zm31.05 94.91h-4.38l12.57-94.95h3.87l12.48 95H1293l-3-23.34h-14.14zm4.26-34.6h11.5l-5.7-45.83zm24.1 34.6V27.09h4V66a9.33 9.33 0 0 1 1.92.2c.62.14 1.23.29 1.84.47l10.58-39.56h4.36l-10.88 42.64Q1318 75.1 1320.7 88t3.8 34.07h-4.42q-.63-11.81-1.76-20.39a80.71 80.71 0 0 0-2.91-14q-1.79-5.43-4.28-7.91a7.19 7.19 0 0 0-5.85-2.22V122zm58.14-47.57a160.44 160.44 0 0 1-1.16 20.18 92.57 92.57 0 0 1-3.22 15.83 33.33 33.33 0 0 1-4.9 10.32q-2.84 3.69-6.14 3.69c-2.21 0-4.25-1.23-6.14-3.69a33.33 33.33 0 0 1-4.9-10.32 92.5 92.5 0 0 1-3.23-15.83 162.44 162.44 0 0 1-1.15-20.18 161 161 0 0 1 1.15-20.12 90.88 90.88 0 0 1 3.25-15.69 33.2 33.2 0 0 1 4.9-10.25c1.89-2.46 3.93-3.7 6.14-3.7s4.25 1.24 6.14 3.7a33.2 33.2 0 0 1 4.9 10.25 90.94 90.94 0 0 1 3.22 15.69 159 159 0 0 1 1.16 20.12m-4.26 0a131.28 131.28 0 0 0-.78-14.69 81.11 81.11 0 0 0-2.23-12.13 29 29 0 0 0-3.52-8.32q-2.07-3.07-4.63-3.08t-4.63 3.08a29 29 0 0 0-3.52 8.32 79.86 79.86 0 0 0-2.23 12.13 131.2 131.2 0 0 0-.79 14.69 134.08 134.08 0 0 0 .79 14.89 79.73 79.73 0 0 0 2.23 12.2 28.13 28.13 0 0 0 3.52 8.25q2.07 3 4.63 3t4.63-3a28.13 28.13 0 0 0 3.52-8.25 81 81 0 0 0 2.23-12.2 134.17 134.17 0 0 0 .78-14.89m25.08 26.69h.09l8.93-74.03h5.99v94.95h-3.97l.04-78.59h-.12l-9.8 78.59H1379l-9.76-78.59h-.12l.04 78.59h-3.89V27.09h5.96l9.05 74.03zm22.37-74.03h4v37.68h4.52a6 6 0 0 1 4.25 1.88 15.35 15.35 0 0 1 3.34 5.43 39.7 39.7 0 0 1 2.17 8.79 82.68 82.68 0 0 1 .77 12.06 87.08 87.08 0 0 1-.78 12.28 43.58 43.58 0 0 1-2.2 9.12 16.48 16.48 0 0 1-3.34 5.69 5.83 5.83 0 0 1-4.26 2h-8.44zm4 49v34.73h4.48q3.29 0 4.9-5a41.33 41.33 0 0 0 1.62-12.61 38.8 38.8 0 0 0-1.65-12.55q-1.65-4.66-4.9-4.66zm30.78 45.95h-3.97V38.49h-9.43v-11.4h22.82v11.4h-9.42v83.55zm17.53-11.4h15.17v11.4h-19.14V27.09h18.56v11.4h-14.59v28.83h13.68v11h-13.68v32.32zm45.61-3.35a52.16 52.16 0 0 1-1.91 6.7 31.21 31.21 0 0 1-2.5 5.43 13.23 13.23 0 0 1-3.06 3.69 5.7 5.7 0 0 1-3.62 1.34q-3.35 0-6.16-3.69a33.58 33.58 0 0 1-4.86-10.32 94.69 94.69 0 0 1-3.2-15.83 161.11 161.11 0 0 1-1.16-20 158.63 158.63 0 0 1 1.18-20.11 94.23 94.23 0 0 1 3.25-15.76 33.12 33.12 0 0 1 4.88-10.32c1.87-2.46 3.91-3.7 6.11-3.7a5.74 5.74 0 0 1 3.13 1 11.4 11.4 0 0 1 2.93 2.89 22.54 22.54 0 0 1 2.55 4.62 36.76 36.76 0 0 1 1.94 6.24l-3.07 8.27a27.86 27.86 0 0 0-2.92-8.05c-1.3-2.32-2.8-3.48-4.48-3.48s-3.3 1-4.67 3.08a28.73 28.73 0 0 0-3.52 8.32 79.73 79.73 0 0 0-2.23 12.2 130.46 130.46 0 0 0-.79 14.75 129.81 129.81 0 0 0 .79 14.82 79.77 79.77 0 0 0 2.23 12.14 27.87 27.87 0 0 0 3.52 8.25c1.37 2 2.92 3 4.63 3s3.13-1 4.52-3.15 2.55-5.34 3.46-9.72zm4.58-80.2h4v37.68h4.52a6 6 0 0 1 4.25 1.88 15.35 15.35 0 0 1 3.34 5.43 39.66 39.66 0 0 1 2.18 8.79 84.11 84.11 0 0 1 .77 12.06 87 87 0 0 1-.79 12.28 43 43 0 0 1-2.19 9.12 16.64 16.64 0 0 1-3.35 5.69 5.83 5.83 0 0 1-4.26 2h-8.44zm4 49v34.73h4.49q3.27 0 4.89-5a41.33 41.33 0 0 0 1.62-12.61q0-7.9-1.64-12.54c-1.09-3.08-2.72-4.62-4.87-4.62zm55.92 31.2a53.85 53.85 0 0 1-1.9 6.7 32.76 32.76 0 0 1-2.5 5.43 13.58 13.58 0 0 1-3.06 3.69 5.72 5.72 0 0 1-3.62 1.34q-3.36 0-6.16-3.69a33.13 33.13 0 0 1-4.86-10.32 94.61 94.61 0 0 1-3.21-15.83 161.2 161.2 0 0 1-1.15-20 158.73 158.73 0 0 1 1.17-20.11 94.23 94.23 0 0 1 3.22-15.81 33.57 33.57 0 0 1 4.88-10.32c1.87-2.46 3.91-3.7 6.12-3.7a5.68 5.68 0 0 1 3.12 1 11.59 11.59 0 0 1 2.94 2.89 22.54 22.54 0 0 1 2.54 4.62 36.76 36.76 0 0 1 1.94 6.24l-3.06 8.31a27.85 27.85 0 0 0-2.91-8.05q-2-3.48-4.49-3.48t-4.67 3.08a29 29 0 0 0-3.52 8.32 81 81 0 0 0-2.23 12.2 132.9 132.9 0 0 0-.78 14.75 132.23 132.23 0 0 0 .78 14.82 81 81 0 0 0 2.23 12.14 28.13 28.13 0 0 0 3.52 8.25q2.07 3 4.63 3t4.53-3.15q2.09-3.15 3.45-9.72zm18.98-3.9l15.79-76.3h4.8v94.95h-3.97V45.33h-.08l-15.8 76.71h-4.8V27.09h3.97v76.3h.09zm27.99-76.3h3.97v39.83h14.84V27.09h3.97v94.95h-3.97V78.45h-14.84v43.59h-3.97V27.09zm55.12 80.2a53.85 53.85 0 0 1-1.9 6.7 32.76 32.76 0 0 1-2.5 5.43 13.58 13.58 0 0 1-3.06 3.69 5.72 5.72 0 0 1-3.62 1.34q-3.36 0-6.16-3.69a33.13 33.13 0 0 1-4.86-10.32 94.61 94.61 0 0 1-3.21-15.83 161.2 161.2 0 0 1-1.15-20 158.73 158.73 0 0 1 1.17-20.11 94.23 94.23 0 0 1 3.25-15.76 33.57 33.57 0 0 1 4.88-10.37c1.87-2.46 3.91-3.7 6.12-3.7a5.68 5.68 0 0 1 3.12 1 11.59 11.59 0 0 1 2.94 2.89 22.54 22.54 0 0 1 2.54 4.62 36.76 36.76 0 0 1 1.94 6.24l-3.06 8.31a27.85 27.85 0 0 0-2.91-8.05q-2-3.48-4.49-3.48c-1.74 0-3.29 1-4.67 3.08a29 29 0 0 0-3.52 8.32 79.73 79.73 0 0 0-2.23 12.2 132.9 132.9 0 0 0-.78 14.75 132.23 132.23 0 0 0 .78 14.82 79.77 79.77 0 0 0 2.23 12.14 28.13 28.13 0 0 0 3.52 8.25q2.07 3 4.63 3t4.53-3.15q2.08-3.15 3.45-9.72zm14.72 14.75h-3.97V38.49h-9.43v-11.4h22.83v11.4h-9.43v83.55zm13.56-94.95h8.89a6.48 6.48 0 0 1 4.18 1.54 12.18 12.18 0 0 1 3.26 4.76 34.14 34.14 0 0 1 2.11 8.18 80.36 80.36 0 0 1 .75 11.81 78.36 78.36 0 0 1-.79 11.86 35.92 35.92 0 0 1-2.18 8.32 12.62 12.62 0 0 1-3.31 4.89 6.37 6.37 0 0 1-4.17 1.61h-4.77v42h-4zm4 42.38h4.52c2.08 0 3.7-1.3 4.88-3.91s1.76-6.6 1.76-12q0-8.36-1.78-12C1707.6 39.17 1706 38 1704 38h-4.56zm22.17-42.38l8.64 58.47 8.31-58.47h4.44l-10.87 74.3q-.75 5-1.57 9a58.41 58.41 0 0 1-1.87 7.1 16 16 0 0 1-2.33 4.7 3.76 3.76 0 0 1-3 1.68 3.52 3.52 0 0 1-3-1.41 15.12 15.12 0 0 1-1.71-2.89l2.11-10.19a11.59 11.59 0 0 0 1.2 2.15 2.17 2.17 0 0 0 1.82 1.07q1.32 0 2.31-3.15a67.65 67.65 0 0 0 1.94-9.06l-10.95-73.35zm25.27 94.91V27.09h4V66a9.33 9.33 0 0 1 1.92.2c.62.14 1.23.29 1.84.47l10.59-39.56h4.38l-10.91 42.62q4.85 5.37 7.57 18.24t3.8 34.07h-4.42q-.62-11.81-1.76-20.39a80.71 80.71 0 0 0-2.91-14q-1.79-5.43-4.28-7.91a7.19 7.19 0 0 0-5.85-2.22V122zm28.82.04V27.09h3.97v83.41h14.14V27.09h3.97v83.41h3.47v30.18h-3.68v-18.64h-21.87zm34.52-18.65l15.8-76.3h4.8v94.95h-3.97V45.33h-.09l-15.8 76.71h-4.79V27.09h3.97v76.3h.08zm31.96 7.25h15.18v11.4h-19.15V27.09h18.57v11.4h-14.6v28.83h13.69v11h-13.69v32.32zm40.41-83.55h4.91v95h-4V45.33h-.08L1867.74 122h-4.88V27.09h4v76h.12zM1870.14 0a28.06 28.06 0 0 0 1.92 7.78q1.34 3.08 3.12 3.08c1.24 0 2.3-1 3.16-3.08a29.63 29.63 0 0 0 1.89-7.78l2.48 4a46.17 46.17 0 0 1-1 5.9 27 27 0 0 1-1.63 4.9 10.71 10.71 0 0 1-2.19 3.28 3.78 3.78 0 0 1-2.69 1.21 3.72 3.72 0 0 1-2.67-1.21 11.28 11.28 0 0 1-2.19-3.28 24.87 24.87 0 0 1-1.63-4.9 52.08 52.08 0 0 1-1-5.9z"/></g></svg>